{
  "accessors": [
    {
      "bufferView": 2,
      "componentType": 5126,
      "count": 32847,
      "max": [
        0.25999999046325684,
        0.2800000011920929,
        0.73979711532592773
      ],
      "min": [
        -0.25999999046325684,
        -0.2800000011920929,
        0.0024556333664804697
      ],
      "type": "VEC3"
    },
    {
      "bufferView": 2,
      "byteOffset": 394164,
      "componentType": 5126,
      "count": 32847,
      "max": [
        0.99999487400054932,
        0.99997955560684204,
        0.99999833106994629
      ],
      "min": [
        -0.99999487400054932,
        -0.99999946355819702,
        -0.99999827146530151
      ],
      "type": "VEC3"
    },
    {
      "bufferView": 3,
      "componentType": 5126,
      "count": 32847,
      "max": [
        1,
        0.99987447261810303,
        0.99999237060546875,
        1
      ],
      "min": [
        -0.99999856948852539,
        -0.99988198280334473,
        -0.99921709299087524,
        -1
      ],
      "type": "VEC4"
    },
    {
      "bufferView": 1,
      "componentType": 5126,
      "count": 32847,
      "max": [
        7.5128216743469238,
        9.0677690505981445
      ],
      "min": [
        -0.56864714622497559,
        -0.96386456489562988
      ],
      "type": "VEC2"
    },
    {
      "bufferView": 1,
      "byteOffset": 262776,
      "componentType": 5126,
      "count": 32847,
      "max": [
        26.325641632080078,
        26.155763626098633
      ],
      "min": [
        -4.5038323402404785,
        -19.619909286499023
      ],
      "type": "VEC2"
    },
    {
      "bufferView": 1,
      "byteOffset": 525552,
      "componentType": 5126,
      "count": 32847,
      "max": [
        7.5128216743469238,
        9.0677690505981445
      ],
      "min": [
        -0.56864714622497559,
        -0.96386456489562988
      ],
      "type": "VEC2"
    },
    {
      "bufferView": 0,
      "componentType": 5125,
      "count": 176574,
      "max": [
        32846
      ],
      "min": [
        0
      ],
      "type": "SCALAR"
    },
    {
      "bufferView": 2,
      "byteOffset": 788328,
      "componentType": 5126,
      "count": 8091,
      "max": [
        0.25755175948143005,
        0.27880886197090149,
        0.73619592189788818
      ],
      "min": [
        -0.2575494647026062,
        -0.27874690294265747,
        0.0065697552636265755
      ],
      "type": "VEC3"
    },
    {
      "bufferView": 2,
      "byteOffset": 885420,
      "componentType": 5126,
      "count": 8091,
      "max": [
        0.99983733892440796,
        0.99960523843765259,
        0.99970835447311401
      ],
      "min": [
        -0.99983739852905273,
        -0.99995017051696777,
        -0.99999678134918213
      ],
      "type": "VEC3"
    },
    {
      "bufferView": 3,
      "byteOffset": 525552,
      "componentType": 5126,
      "count": 8091,
      "max": [
        0.9999997615814209,
        0.99993175268173218,
        0.99977976083755493,
        1
      ],
      "min": [
        -0.99999821186065674,
        -0.9999319314956665,
        -0.9995151162147522,
        -1
      ],
      "type": "VEC4"
    },
    {
      "bufferView": 1,
      "byteOffset": 788328,
      "componentType": 5126,
      "count": 8091,
      "max": [
        7.4870381355285645,
        9.0420398712158203
      ],
      "min": [
        -0.53671348094940186,
        -0.9532630443572998
      ],
      "type": "VEC2"
    },
    {
      "bufferView": 1,
      "byteOffset": 853056,
      "componentType": 5126,
      "count": 8091,
      "max": [
        26.109861373901367,
        0.77999955415725708
      ],
      "min": [
        -31.344461441040039,
        -0.035827886313199997
      ],
      "type": "VEC2"
    },
    {
      "bufferView": 0,
      "byteOffset": 706296,
      "componentType": 5125,
      "count": 36840,
      "max": [
        8090
      ],
      "min": [
        0
      ],
      "type": "SCALAR"
    },
    {
      "bufferView": 2,
      "byteOffset": 982512,
      "componentType": 5126,
      "count": 1208,
      "max": [
        0.2338046133518219,
        0.25003588199615479,
        0.40357458591461182
      ],
      "min": [
        -0.23382259905338287,
        -0.26543593406677246,
        0.0068184328265488148
      ],
      "type": "VEC3"
    },
    {
      "bufferView": 2,
      "byteOffset": 997008,
      "componentType": 5126,
      "count": 1208,
      "max": [
        0.99935203790664673,
        0.99981963634490967,
        0.40550723671913147
      ],
      "min": [
        -0.99821507930755615,
        -0.99646162986755371,
        -0.9010695219039917
      ],
      "type": "VEC3"
    },
    {
      "bufferView": 3,
      "byteOffset": 655008,
      "componentType": 5126,
      "count": 1208,
      "max": [
        0.78309929370880127,
        0.35051184892654419,
        0.99997663497924805,
        1
      ],
      "min": [
        -0.81092357635498047,
        -0.65674275159835815,
        -0.99997472763061523,
        -1
      ],
      "type": "VEC4"
    },
    {
      "bufferView": 1,
      "byteOffset": 917784,
      "componentType": 5126,
      "count": 1208,
      "max": [
        1.0695949792861938,
        0.62232130765914917
      ],
      "min": [
        -0.7484515905380249,
        0.42635077238082886
      ],
      "type": "VEC2"
    },
    {
      "bufferView": 1,
      "byteOffset": 927448,
      "componentType": 5126,
      "count": 1208,
      "max": [
        5.1505331993103027,
        23.243703842163086
      ],
      "min": [
        -1.1491672992706299,
        0.4082973301410675
      ],
      "type": "VEC2"
    },
    {
      "bufferView": 1,
      "byteOffset": 937112,
      "componentType": 5126,
      "count": 1208,
      "max": [
        1.0695949792861938,
        0.62232130765914917
      ],
      "min": [
        -0.7484515905380249,
        0.42635077238082886
      ],
      "type": "VEC2"
    },
    {
      "bufferView": 0,
      "byteOffset": 853656,
      "componentType": 5125,
      "count": 6144,
      "max": [
        1207
      ],
      "min": [
        0
      ],
      "type": "SCALAR"
    },
    {
      "bufferView": 2,
      "byteOffset": 1011504,
      "componentType": 5126,
      "count": 7209,
      "max": [
        0.25999999046325684,
        0.2800000011920929,
        0.74000000953674316
      ],
      "min": [
        -0.25999999046325684,
        -0.2800000011920929,
        0.0030029918998479843
      ],
      "type": "VEC3"
    },
    {
      "bufferView": 2,
      "byteOffset": 1098012,
      "componentType": 5126,
      "count": 7209,
      "max": [
        0.99989306926727295,
        0.99888032674789429,
        0.99932920932769775
      ],
      "min": [
        -0.99993568658828735,
        -0.99942284822463989,
        -0.99994510412216187
      ],
      "type": "VEC3"
    },
    {
      "bufferView": 3,
      "byteOffset": 674336,
      "componentType": 5126,
      "count": 7209,
      "max": [
        0.99998533725738525,
        0.99994391202926636,
        0.9998396635055542,
        1
      ],
      "min": [
        -0.99998420476913452,
        -0.99967420101165771,
        -0.99945175647735596,
        -1
      ],
      "type": "VEC4"
    },
    {
      "bufferView": 1,
      "byteOffset": 946776,
      "componentType": 5126,
      "count": 7209,
      "max": [
        27.65660285949707,
        42.492950439453125
      ],
      "min": [
        -2.8712000846862793,
        -3.1765720844268799
      ],
      "type": "VEC2"
    },
    {
      "bufferView": 1,
      "byteOffset": 1004448,
      "componentType": 5126,
      "count": 7209,
      "max": [
        26.324199676513672,
        26.155763626098633
      ],
      "min": [
        -2.8712000846862793,
        -19.621866226196289
      ],
      "type": "VEC2"
    },
    {
      "bufferView": 1,
      "byteOffset": 1062120,
      "componentType": 5126,
      "count": 7209,
      "max": [
        27.65660285949707,
        42.492950439453125
      ],
      "min": [
        -2.8712000846862793,
        -3.1765720844268799
      ],
      "type": "VEC2"
    },
    {
      "bufferView": 0,
      "byteOffset": 878232,
      "componentType": 5125,
      "count": 32910,
      "max": [
        7208
      ],
      "min": [
        0
      ],
      "type": "SCALAR"
    },
    {
      "bufferView": 2,
      "byteOffset": 1184520,
      "componentType": 5126,
      "count": 200,
      "max": [
        0.2420671284198761,
        0.2669004499912262,
        0.0054720155894756317
      ],
      "min": [
        -0.24210795760154724,
        -0.27455538511276245,
        0
      ],
      "type": "VEC3"
    },
    {
      "bufferView": 2,
      "byteOffset": 1186920,
      "componentType": 5126,
      "count": 200,
      "max": [
        1,
        1,
        1
      ],
      "min": [
        -1,
        -1,
        -1
      ],
      "type": "VEC3"
    },
    {
      "bufferView": 3,
      "byteOffset": 789680,
      "componentType": 5126,
      "count": 200,
      "max": [
        1,
        1,
        2.0773596176582032e-08,
        1
      ],
      "min": [
        -1,
        -1,
        -2.0773370579263428e-08,
        -1
      ],
      "type": "VEC4"
    },
    {
      "bufferView": 1,
      "byteOffset": 1119792,
      "componentType": 5126,
      "count": 200,
      "max": [
        1,
        1
      ],
      "min": [
        0,
        0
      ],
      "type": "VEC2"
    },
    {
      "bufferView": 1,
      "byteOffset": 1121392,
      "componentType": 5126,
      "count": 200,
      "max": [
        0.82880973815917969,
        0.82880973815917969
      ],
      "min": [
        -0.82880973815917969,
        -0.82880973815917969
      ],
      "type": "VEC2"
    },
    {
      "bufferView": 0,
      "byteOffset": 1009872,
      "componentType": 5125,
      "count": 528,
      "max": [
        199
      ],
      "min": [
        0
      ],
      "type": "SCALAR"
    }
  ],
  "asset": {
    "extras": {
      "author": "ang88myt (https://sketchfab.com/ang88myt)",
      "license": "CC-BY-4.0 (http://creativecommons.org/licenses/by/4.0/)",
      "source": "https://sketchfab.com/3d-models/isabelarmchair-b060781d269b4611876326175e159bbc",
      "title": "isabelarmchair"
    },
    "generator": "Sketchfab-5.83.0",
    "version": "2.0"
  },
  "bufferViews": [
    {
      "buffer": 0,
      "byteLength": 1011984,
      "byteOffset": 0,
      "name": "floatBufferViews",
      "target": 34963
    },
    {
      "buffer": 0,
      "byteLength": 1122992,
      "byteOffset": 1011984,
      "byteStride": 8,
      "name": "floatBufferViews",
      "target": 34962
    },
    {
      "buffer": 0,
      "byteLength": 1189320,
      "byteOffset": 2134976,
      "byteStride": 12,
      "name": "floatBufferViews",
      "target": 34962
    },
    {
      "buffer": 0,
      "byteLength": 792880,
      "byteOffset": 3324296,
      "byteStride": 16,
      "name": "floatBufferViews",
      "target": 34962
    }
  ],
  "buffers": [
    {
      "byteLength": 4117176,
      "uri": "scene.bin"
    }
  ],
  "images": [
    {
      "uri": "textures/flexform_isabel_armchair_mat_mtl_1_baseColor.jpeg"
    },
    {
      "uri": "textures/flexform_isabel_armchair_mat_mtl_4_baseColor.jpeg"
    },
    {
      "uri": "textures/flexform_isabel_armchair_mat_mtl_2_baseColor.jpeg"
    }
  ],
  "materials": [
    {
      "doubleSided": true,
      "emissiveFactor": [
        0,
        0,
        0
      ],
      "name": "flexform_isabel_armchair_mat_mtl_1",
      "pbrMetallicRoughness": {
        "baseColorFactor": [
          1,
          1,
          1,
          1
        ],
        "baseColorTexture": {
          "index": 0,
          "texCoord": 0
        },
        "metallicFactor": 0,
        "roughnessFactor": 0.89297135964975516
      }
    },
    {
      "doubleSided": true,
      "emissiveFactor": [
        0,
        0,
        0
      ],
      "name": "flexform_isabel_armchair_mat_Slot_3",
      "pbrMetallicRoughness": {
        "baseColorFactor": [
          0,
          0,
          0,
          1
        ],
        "metallicFactor": 0,
        "roughnessFactor": 0.95770514946237739
      }
    },
    {
      "doubleSided": true,
      "emissiveFactor": [
        0,
        0,
        0
      ],
      "name": "flexform_isabel_armchair_mat_mtl_4",
      "pbrMetallicRoughness": {
        "baseColorFactor": [
          1,
          1,
          1,
          1
        ],
        "baseColorTexture": {
          "index": 1,
          "texCoord": 0
        },
        "metallicFactor": 0,
        "roughnessFactor": 0.89297135964975516
      }
    },
    {
      "doubleSided": true,
      "emissiveFactor": [
        0,
        0,
        0
      ],
      "name": "flexform_isabel_armchair_mat_mtl_2",
      "pbrMetallicRoughness": {
        "baseColorFactor": [
          1,
          1,
          1,
          1
        ],
        "baseColorTexture": {
          "index": 2,
          "texCoord": 0
        },
        "metallicFactor": 0,
        "roughnessFactor": 0.89297135964975516
      }
    },
    {
      "doubleSided": true,
      "emissiveFactor": [
        0,
        0,
        0
      ],
      "name": "flexform_isabel_armchair_mat_mtl_5",
      "pbrMetallicRoughness": {
        "baseColorFactor": [
          0,
          0,
          0,
          1
        ],
        "metallicFactor": 0,
        "roughnessFactor": 0.89297135964975516
      }
    }
  ],
  "meshes": [
    {
      "name": "flexform_isabel_armchair_flexform_isabel_armchair_mat_mtl_1_0",
      "primitives": [
        {
          "attributes": {
            "NORMAL": 1,
            "POSITION": 0,
            "TANGENT": 2,
            "TEXCOORD_0": 3,
            "TEXCOORD_1": 4,
            "TEXCOORD_2": 5
          },
          "indices": 6,
          "material": 0,
          "mode": 4
        }
      ]
    },
    {
      "name": "flexform_isabel_armchair_flexform_isabel_armchair_mat Slot #3_0",
      "primitives": [
        {
          "attributes": {
            "NORMAL": 8,
            "POSITION": 7,
            "TANGENT": 9,
            "TEXCOORD_0": 10,
            "TEXCOORD_1": 11
          },
          "indices": 12,
          "material": 1,
          "mode": 4
        }
      ]
    },
    {
      "name": "flexform_isabel_armchair_flexform_isabel_armchair_mat_mtl_4_0",
      "primitives": [
        {
          "attributes": {
            "NORMAL": 14,
            "POSITION": 13,
            "TANGENT": 15,
            "TEXCOORD_0": 16,
            "TEXCOORD_1": 17,
            "TEXCOORD_2": 18
          },
          "indices": 19,
          "material": 2,
          "mode": 4
        }
      ]
    },
    {
      "name": "flexform_isabel_armchair_flexform_isabel_armchair_mat_mtl_2_0",
      "primitives": [
        {
          "attributes": {
            "NORMAL": 21,
            "POSITION": 20,
            "TANGENT": 22,
            "TEXCOORD_0": 23,
            "TEXCOORD_1": 24,
            "TEXCOORD_2": 25
          },
          "indices": 26,
          "material": 3,
          "mode": 4
        }
      ]
    },
    {
      "name": "flexform_isabel_armchair_flexform_isabel_armchair_mat_mtl_5_0",
      "primitives": [
        {
          "attributes": {
            "NORMAL": 28,
            "POSITION": 27,
            "TANGENT": 29,
            "TEXCOORD_0": 30,
            "TEXCOORD_1": 31
          },
          "indices": 32,
          "material": 4,
          "mode": 4
        }
      ]
    }
  ],
  "nodes": [
    {
      "children": [
        1
      ],
      "name": "RootNode (gltf orientation matrix)",
      "rotation": [
        -0.70710678118654746,
        -0,
        -0,
        0.70710678118654757
      ]
    },
    {
      "children": [
        2
      ],
      "name": "RootNode (model correction matrix)"
    },
    {
      "children": [
        3
      ],
      "matrix": [
        1,
        0,
        0,
        0,
        0,
        0,
        1,
        0,
        0,
        -1,
        0,
        0,
        0,
        0,
        0,
        1
      ],
      "name": "scene.fbx"
    },
    {
      "children": [
        4
      ],
      "name": "RootNode"
    },
    {
      "children": [
        5,
        6,
        7,
        8,
        9
      ],
      "matrix": [
        1,
        0,
        0,
        0,
        0,
        -4.3711390063094768e-08,
        -0.999999999999999,
        0,
        0,
        0.999999999999999,
        -4.3711390063094768e-08,
        0,
        0,
        0,
        0,
        1
      ],
      "name": "flexform_isabel_armchair"
    },
    {
      "mesh": 0,
      "name": "flexform_isabel_armchair_flexform_isabel_armchair_mat_mtl_1_0"
    },
    {
      "mesh": 1,
      "name": "flexform_isabel_armchair_flexform_isabel_armchair_mat Slot #3_0"
    },
    {
      "mesh": 2,
      "name": "flexform_isabel_armchair_flexform_isabel_armchair_mat_mtl_4_0"
    },
    {
      "mesh": 3,
      "name": "flexform_isabel_armchair_flexform_isabel_armchair_mat_mtl_2_0"
    },
    {
      "mesh": 4,
      "name": "flexform_isabel_armchair_flexform_isabel_armchair_mat_mtl_5_0"
    }
  ],
  "samplers": [
    {
      "magFilter": 9729,
      "minFilter": 9987,
      "wrapS": 10497,
      "wrapT": 10497
    }
  ],
  "scene": 0,
  "scenes": [
    {
      "name": "OSG_Scene",
      "nodes": [
        0
      ]
    }
  ],
  "textures": [
    {
      "sampler": 0,
      "source": 0
    },
    {
      "sampler": 0,
      "source": 1
    },
    {
      "sampler": 0,
      "source": 2
    }
  ]
}

