{
  "accessors": [
    {
      "bufferView": 2,
      "componentType": 5126,
      "count": 65532,
      "max": [
        1130.4407958984375,
        341.9888916015625,
        419.6182861328125
      ],
      "min": [
        -1130.4407958984375,
        -478.40631103515625,
        -420.35818481445312
      ],
      "type": "VEC3"
    },
    {
      "bufferView": 2,
      "byteOffset": 786384,
      "componentType": 5126,
      "count": 65532,
      "max": [
        1,
        1,
        1
      ],
      "min": [
        -1,
        -1,
        -1
      ],
      "type": "VEC3"
    },
    {
      "bufferView": 3,
      "componentType": 5126,
      "count": 65532,
      "max": [
        1,
        1,
        1,
        1
      ],
      "min": [
        -1,
        -1,
        -1,
        -1
      ],
      "type": "VEC4"
    },
    {
      "bufferView": 1,
      "componentType": 5126,
      "count": 65532,
      "max": [
        24.149799346923828,
        2.4453001022338867
      ],
      "min": [
        -23.149799346923828,
        -4.8038997650146484
      ],
      "type": "VEC2"
    },
    {
      "bufferView": 0,
      "componentType": 5125,
      "count": 357639,
      "max": [
        65531
      ],
      "min": [
        0
      ],
      "type": "SCALAR"
    },
    {
      "bufferView": 2,
      "byteOffset": 1572768,
      "componentType": 5126,
      "count": 65532,
      "max": [
        1099.69287109375,
        366.46438598632812,
        420.35818481445312
      ],
      "min": [
        -1100.5181884765625,
        -408.40631103515625,
        -394.03829956054688
      ],
      "type": "VEC3"
    },
    {
      "bufferView": 2,
      "byteOffset": 2359152,
      "componentType": 5126,
      "count": 65532,
      "max": [
        1,
        1,
        1
      ],
      "min": [
        -1,
        -1,
        -1
      ],
      "type": "VEC3"
    },
    {
      "bufferView": 3,
      "byteOffset": 1048512,
      "componentType": 5126,
      "count": 65532,
      "max": [
        1,
        1,
        1,
        1
      ],
      "min": [
        -1,
        -1,
        -1,
        -1
      ],
      "type": "VEC4"
    },
    {
      "bufferView": 1,
      "byteOffset": 524256,
      "componentType": 5126,
      "count": 65532,
      "max": [
        4.2659001350402832,
        1.0263999700546265
      ],
      "min": [
        -3.2658998966217041,
        -3.2638001441955566
      ],
      "type": "VEC2"
    },
    {
      "bufferView": 0,
      "byteOffset": 1430556,
      "componentType": 5125,
      "count": 362172,
      "max": [
        65531
      ],
      "min": [
        0
      ],
      "type": "SCALAR"
    },
    {
      "bufferView": 2,
      "byteOffset": 3145536,
      "componentType": 5126,
      "count": 1500,
      "max": [
        64.543998718261719,
        -301.40631103515625,
        414.9224853515625
      ],
      "min": [
        -64.54119873046875,
        -408.40631103515625,
        -416.87051391601562
      ],
      "type": "VEC3"
    },
    {
      "bufferView": 2,
      "byteOffset": 3163536,
      "componentType": 5126,
      "count": 1500,
      "max": [
        1,
        1,
        1
      ],
      "min": [
        -1,
        -1,
        -1
      ],
      "type": "VEC3"
    },
    {
      "bufferView": 3,
      "byteOffset": 2097024,
      "componentType": 5126,
      "count": 1500,
      "max": [
        1,
        0.73255836963653564,
        1,
        1
      ],
      "min": [
        -1,
        -0.73255831003189087,
        -1,
        -1
      ],
      "type": "VEC4"
    },
    {
      "bufferView": 1,
      "byteOffset": 1048512,
      "componentType": 5126,
      "count": 1500,
      "max": [
        0.99800002574920654,
        0.99720001220703125
      ],
      "min": [
        0.0020000000949949026,
        0.00279998779296875
      ],
      "type": "VEC2"
    },
    {
      "bufferView": 0,
      "byteOffset": 2879244,
      "componentType": 5125,
      "count": 7293,
      "max": [
        1499
      ],
      "min": [
        0
      ],
      "type": "SCALAR"
    },
    {
      "bufferView": 2,
      "byteOffset": 3181536,
      "componentType": 5126,
      "count": 17100,
      "max": [
        1035.5084228515625,
        478.40640258789062,
        86.461097717285156
      ],
      "min": [
        -1048.5013427734375,
        -93.416099548339844,
        -386.62210083007812
      ],
      "type": "VEC3"
    },
    {
      "bufferView": 2,
      "byteOffset": 3386736,
      "componentType": 5126,
      "count": 17100,
      "max": [
        0.99981313943862915,
        0.99992364645004272,
        0.99996489286422729
      ],
      "min": [
        -0.9998328685760498,
        -0.99773538112640381,
        -0.99969905614852905
      ],
      "type": "VEC3"
    },
    {
      "bufferView": 3,
      "byteOffset": 2121024,
      "componentType": 5126,
      "count": 17100,
      "max": [
        0.90818554162979126,
        0.98698508739471436,
        0.99990248680114746,
        1
      ],
      "min": [
        -0.99999737739562988,
        -0.99453121423721313,
        -0.99639427661895752,
        -1
      ],
      "type": "VEC4"
    },
    {
      "bufferView": 1,
      "byteOffset": 1060512,
      "componentType": 5126,
      "count": 17100,
      "max": [
        0.99949997663497925,
        0.99949997663497925
      ],
      "min": [
        0.00050000002374872565,
        0.00050002336502075195
      ],
      "type": "VEC2"
    },
    {
      "bufferView": 0,
      "byteOffset": 2908416,
      "componentType": 5125,
      "count": 102528,
      "max": [
        17099
      ],
      "min": [
        0
      ],
      "type": "SCALAR"
    },
    {
      "bufferView": 2,
      "byteOffset": 3591936,
      "componentType": 5126,
      "count": 65532,
      "max": [
        1077.6959228515625,
        307.04299926757812,
        383.91488647460938
      ],
      "min": [
        -1061.826171875,
        -213.40640258789062,
        -390.36590576171875
      ],
      "type": "VEC3"
    },
    {
      "bufferView": 2,
      "byteOffset": 4378320,
      "componentType": 5126,
      "count": 65532,
      "max": [
        1,
        1,
        1
      ],
      "min": [
        -1,
        -1,
        -1
      ],
      "type": "VEC3"
    },
    {
      "bufferView": 3,
      "byteOffset": 2394624,
      "componentType": 5126,
      "count": 65532,
      "max": [
        1,
        1,
        1,
        1
      ],
      "min": [
        -1,
        -1,
        -1,
        -1
      ],
      "type": "VEC4"
    },
    {
      "bufferView": 1,
      "byteOffset": 1197312,
      "componentType": 5126,
      "count": 65532,
      "max": [
        14.290900230407715,
        3.3843998908996582
      ],
      "min": [
        -13.290900230407715,
        -2.3843998908996582
      ],
      "type": "VEC2"
    },
    {
      "bufferView": 0,
      "byteOffset": 3318528,
      "componentType": 5125,
      "count": 336726,
      "max": [
        65531
      ],
      "min": [
        0
      ],
      "type": "SCALAR"
    },
    {
      "bufferView": 2,
      "byteOffset": 5164704,
      "componentType": 5126,
      "count": 65532,
      "max": [
        1012.6007080078125,
        296.59490966796875,
        378.81320190429688
      ],
      "min": [
        -1100.5179443359375,
        -213.40690612792969,
        -392.781005859375
      ],
      "type": "VEC3"
    },
    {
      "bufferView": 2,
      "byteOffset": 5951088,
      "componentType": 5126,
      "count": 65532,
      "max": [
        1,
        1,
        1
      ],
      "min": [
        -1,
        -1,
        -1
      ],
      "type": "VEC3"
    },
    {
      "bufferView": 3,
      "byteOffset": 3443136,
      "componentType": 5126,
      "count": 65532,
      "max": [
        1,
        1,
        1,
        1
      ],
      "min": [
        -1,
        -1,
        -1,
        -1
      ],
      "type": "VEC4"
    },
    {
      "bufferView": 1,
      "byteOffset": 1721568,
      "componentType": 5126,
      "count": 65532,
      "max": [
        4.3234000205993652,
        3.1013000011444092
      ],
      "min": [
        -3.3229000568389893,
        -1.4409000873565674
      ],
      "type": "VEC2"
    },
    {
      "bufferView": 0,
      "byteOffset": 4665432,
      "componentType": 5125,
      "count": 347370,
      "max": [
        65531
      ],
      "min": [
        0
      ],
      "type": "SCALAR"
    },
    {
      "bufferView": 2,
      "byteOffset": 6737472,
      "componentType": 5126,
      "count": 65532,
      "max": [
        1100.5965576171875,
        296.59521484375,
        378.81320190429688
      ],
      "min": [
        -1101.421875,
        -213.40679931640625,
        -392.781005859375
      ],
      "type": "VEC3"
    },
    {
      "bufferView": 2,
      "byteOffset": 7523856,
      "componentType": 5126,
      "count": 65532,
      "max": [
        1,
        1,
        1
      ],
      "min": [
        -1,
        -1,
        -1
      ],
      "type": "VEC3"
    },
    {
      "bufferView": 3,
      "byteOffset": 4491648,
      "componentType": 5126,
      "count": 65532,
      "max": [
        1,
        1,
        1,
        1
      ],
      "min": [
        -1,
        -1,
        -1,
        -1
      ],
      "type": "VEC4"
    },
    {
      "bufferView": 1,
      "byteOffset": 2245824,
      "componentType": 5126,
      "count": 65532,
      "max": [
        2.6552000045776367,
        1.0098999738693237
      ],
      "min": [
        -1.6552000045776367,
        -0.071699976921081543
      ],
      "type": "VEC2"
    },
    {
      "bufferView": 0,
      "byteOffset": 6054912,
      "componentType": 5125,
      "count": 362811,
      "max": [
        65531
      ],
      "min": [
        0
      ],
      "type": "SCALAR"
    },
    {
      "bufferView": 2,
      "byteOffset": 8310240,
      "componentType": 5126,
      "count": 17691,
      "max": [
        1100.5965576171875,
        294.74990844726562,
        -205.427001953125
      ],
      "min": [
        1069.7025146484375,
        -171.00740051269531,
        -352.27398681640625
      ],
      "type": "VEC3"
    },
    {
      "bufferView": 2,
      "byteOffset": 8522532,
      "componentType": 5126,
      "count": 17691,
      "max": [
        1,
        0.99933362007141113,
        0.99858391284942627
      ],
      "min": [
        -1,
        -0.99933362007141113,
        -0.99858391284942627
      ],
      "type": "VEC3"
    },
    {
      "bufferView": 3,
      "byteOffset": 5540160,
      "componentType": 5126,
      "count": 17691,
      "max": [
        0.83039891719818115,
        0.99858397245407104,
        1,
        1
      ],
      "min": [
        -0.83040475845336914,
        -0.99858397245407104,
        -0.99933367967605591,
        -1
      ],
      "type": "VEC4"
    },
    {
      "bufferView": 1,
      "byteOffset": 2770080,
      "componentType": 5126,
      "count": 17691,
      "max": [
        2.3427999019622803,
        0.93330001831054688
      ],
      "min": [
        -0.81950002908706665,
        0.066699981689453125
      ],
      "type": "VEC2"
    },
    {
      "bufferView": 0,
      "byteOffset": 7506156,
      "componentType": 5125,
      "count": 95889,
      "max": [
        17690
      ],
      "min": [
        0
      ],
      "type": "SCALAR"
    }
  ],
  "asset": {
    "extras": {
      "author": "163 (https://sketchfab.com/163)",
      "license": "CC-BY-4.0 (http://creativecommons.org/licenses/by/4.0/)",
      "source": "https://sketchfab.com/3d-models/shafa-gltf-1212a60c0be343b4b6d64a66aae0fca7",
      "title": "Shafa Gltf"
    },
    "generator": "Sketchfab-5.51.0",
    "version": "2.0"
  },
  "bufferViews": [
    {
      "buffer": 0,
      "byteLength": 7889712,
      "byteOffset": 0,
      "name": "floatBufferViews",
      "target": 34963
    },
    {
      "buffer": 0,
      "byteLength": 2911608,
      "byteOffset": 7889712,
      "byteStride": 8,
      "name": "floatBufferViews",
      "target": 34962
    },
    {
      "buffer": 0,
      "byteLength": 8734824,
      "byteOffset": 10801320,
      "byteStride": 12,
      "name": "floatBufferViews",
      "target": 34962
    },
    {
      "buffer": 0,
      "byteLength": 5823216,
      "byteOffset": 19536144,
      "byteStride": 16,
      "name": "floatBufferViews",
      "target": 34962
    }
  ],
  "buffers": [
    {
      "byteLength": 25359360,
      "uri": "scene.bin"
    }
  ],
  "images": [
    {
      "uri": "textures/wood_baseColor.jpeg"
    },
    {
      "uri": "textures/Default_baseColor.jpeg"
    },
    {
      "uri": "textures/pige_baseColor.jpeg"
    }
  ],
  "materials": [
    {
      "doubleSided": false,
      "emissiveFactor": [
        0,
        0,
        0
      ],
      "name": "wood",
      "pbrMetallicRoughness": {
        "baseColorFactor": [
          1,
          1,
          1,
          1
        ],
        "baseColorTexture": {
          "index": 0,
          "texCoord": 0
        },
        "metallicFactor": 1,
        "roughnessFactor": 1
      }
    },
    {
      "doubleSided": false,
      "emissiveFactor": [
        0,
        0,
        0
      ],
      "name": "Default",
      "pbrMetallicRoughness": {
        "baseColorFactor": [
          1,
          1,
          1,
          1
        ],
        "baseColorTexture": {
          "index": 1,
          "texCoord": 0
        },
        "metallicFactor": 1,
        "roughnessFactor": 1
      }
    },
    {
      "doubleSided": false,
      "emissiveFactor": [
        0,
        0,
        0
      ],
      "name": "pige",
      "pbrMetallicRoughness": {
        "baseColorFactor": [
          1,
          1,
          1,
          1
        ],
        "baseColorTexture": {
          "index": 2,
          "texCoord": 0
        },
        "metallicFactor": 1,
        "roughnessFactor": 1
      }
    }
  ],
  "meshes": [
    {
      "primitives": [
        {
          "attributes": {
            "NORMAL": 1,
            "POSITION": 0,
            "TANGENT": 2,
            "TEXCOORD_0": 3
          },
          "indices": 4,
          "material": 0,
          "mode": 4
        }
      ]
    },
    {
      "primitives": [
        {
          "attributes": {
            "NORMAL": 6,
            "POSITION": 5,
            "TANGENT": 7,
            "TEXCOORD_0": 8
          },
          "indices": 9,
          "material": 0,
          "mode": 4
        }
      ]
    },
    {
      "primitives": [
        {
          "attributes": {
            "NORMAL": 11,
            "POSITION": 10,
            "TANGENT": 12,
            "TEXCOORD_0": 13
          },
          "indices": 14,
          "material": 0,
          "mode": 4
        }
      ]
    },
    {
      "primitives": [
        {
          "attributes": {
            "NORMAL": 16,
            "POSITION": 15,
            "TANGENT": 17,
            "TEXCOORD_0": 18
          },
          "indices": 19,
          "material": 1,
          "mode": 4
        }
      ]
    },
    {
      "primitives": [
        {
          "attributes": {
            "NORMAL": 21,
            "POSITION": 20,
            "TANGENT": 22,
            "TEXCOORD_0": 23
          },
          "indices": 24,
          "material": 2,
          "mode": 4
        }
      ]
    },
    {
      "primitives": [
        {
          "attributes": {
            "NORMAL": 26,
            "POSITION": 25,
            "TANGENT": 27,
            "TEXCOORD_0": 28
          },
          "indices": 29,
          "material": 2,
          "mode": 4
        }
      ]
    },
    {
      "primitives": [
        {
          "attributes": {
            "NORMAL": 31,
            "POSITION": 30,
            "TANGENT": 32,
            "TEXCOORD_0": 33
          },
          "indices": 34,
          "material": 2,
          "mode": 4
        }
      ]
    },
    {
      "primitives": [
        {
          "attributes": {
            "NORMAL": 36,
            "POSITION": 35,
            "TANGENT": 37,
            "TEXCOORD_0": 38
          },
          "indices": 39,
          "material": 2,
          "mode": 4
        }
      ]
    }
  ],
  "nodes": [
    {
      "children": [
        1
      ],
      "name": "RootNode (gltf orientation matrix)",
      "rotation": [
        -0.70710678118654746,
        -0,
        -0,
        0.70710678118654757
      ]
    },
    {
      "children": [
        2
      ],
      "name": "RootNode (model correction matrix)"
    },
    {
      "children": [
        3
      ],
      "name": "root"
    },
    {
      "children": [
        4
      ],
      "matrix": [
        1,
        0,
        0,
        0,
        0,
        2.2204460492503131e-16,
        1,
        0,
        0,
        -1,
        2.2204460492503131e-16,
        0,
        0,
        0,
        0,
        1
      ],
      "name": "GLTF_SceneRootNode"
    },
    {
      "children": [
        5,
        6,
        7,
        8,
        9,
        10,
        11,
        12
      ],
      "name": "Line015_0"
    },
    {
      "mesh": 0,
      "name": ""
    },
    {
      "mesh": 1,
      "name": ""
    },
    {
      "mesh": 2,
      "name": ""
    },
    {
      "mesh": 3,
      "name": ""
    },
    {
      "mesh": 4,
      "name": ""
    },
    {
      "mesh": 5,
      "name": ""
    },
    {
      "mesh": 6,
      "name": ""
    },
    {
      "mesh": 7,
      "name": ""
    }
  ],
  "samplers": [
    {
      "magFilter": 9729,
      "minFilter": 9987,
      "wrapS": 10497,
      "wrapT": 10497
    }
  ],
  "scene": 0,
  "scenes": [
    {
      "name": "OSG_Scene",
      "nodes": [
        0
      ]
    }
  ],
  "textures": [
    {
      "sampler": 0,
      "source": 0
    },
    {
      "sampler": 0,
      "source": 1
    },
    {
      "sampler": 0,
      "source": 2
    }
  ]
}

